<svg id="my-svg" width="100%" xmlns="http://www.w3.org/2000/svg" xmlns:xlink="http://www.w3.org/1999/xlink" class="classDiagram" style="max-width: 1887.01px; background-color: transparent;" viewBox="0 -47 1887.0078125 895" role="graphics-document document" aria-roledescription="class"><style>#my-svg{font-family:"trebuchet ms",verdana,arial,sans-serif;font-size:16px;fill:#ccc;}@keyframes edge-animation-frame{from{stroke-dashoffset:0;}}@keyframes dash{to{stroke-dashoffset:0;}}#my-svg .edge-animation-slow{stroke-dasharray:9,5!important;stroke-dashoffset:900;animation:dash 50s linear infinite;stroke-linecap:round;}#my-svg .edge-animation-fast{stroke-dasharray:9,5!important;stroke-dashoffset:900;animation:dash 20s linear infinite;stroke-linecap:round;}#my-svg .error-icon{fill:#a44141;}#my-svg .error-text{fill:#ddd;stroke:#ddd;}#my-svg .edge-thickness-normal{stroke-width:1px;}#my-svg .edge-thickness-thick{stroke-width:3.5px;}#my-svg .edge-pattern-solid{stroke-dasharray:0;}#my-svg .edge-thickness-invisible{stroke-width:0;fill:none;}#my-svg .edge-pattern-dashed{stroke-dasharray:3;}#my-svg .edge-pattern-dotted{stroke-dasharray:2;}#my-svg .marker{fill:lightgrey;stroke:lightgrey;}#my-svg .marker.cross{stroke:lightgrey;}#my-svg svg{font-family:"trebuchet ms",verdana,arial,sans-serif;font-size:16px;}#my-svg p{margin:0;}#my-svg g.classGroup text{fill:#ccc;stroke:none;font-family:"trebuchet ms",verdana,arial,sans-serif;font-size:10px;}#my-svg g.classGroup text .title{font-weight:bolder;}#my-svg .cluster-label text{fill:#F9FFFE;}#my-svg .cluster-label span{color:#F9FFFE;}#my-svg .cluster-label span p{background-color:transparent;}#my-svg .cluster rect{fill:hsl(180, 1.5873015873%, 28.3529411765%);stroke:rgba(255, 255, 255, 0.25);stroke-width:1px;}#my-svg .cluster text{fill:#F9FFFE;}#my-svg .cluster span{color:#F9FFFE;}#my-svg .nodeLabel,#my-svg .edgeLabel{color:#e0dfdf;}#my-svg .noteLabel .nodeLabel,#my-svg .noteLabel .edgeLabel{color:rgb(183.8476190475, 181.5523809523, 181.5523809523);}#my-svg .edgeLabel .label rect{fill:#1f2020;}#my-svg .label text{fill:#e0dfdf;}#my-svg .labelBkg{background:#1f2020;}#my-svg .edgeLabel .label span{background:#1f2020;}#my-svg .classTitle{font-weight:bolder;}#my-svg .node rect,#my-svg .node circle,#my-svg .node ellipse,#my-svg .node polygon,#my-svg .node path{fill:#1f2020;stroke:#ccc;stroke-width:1;}#my-svg .divider{stroke:#ccc;stroke-width:1;}#my-svg g.clickable{cursor:pointer;}#my-svg g.classGroup rect{fill:#1f2020;stroke:#ccc;}#my-svg g.classGroup line{stroke:#ccc;stroke-width:1;}#my-svg .classLabel .box{stroke:none;stroke-width:0;fill:#1f2020;opacity:0.5;}#my-svg .classLabel .label{fill:#ccc;font-size:10px;}#my-svg .relation{stroke:lightgrey;stroke-width:1;fill:none;}#my-svg .dashed-line{stroke-dasharray:3;}#my-svg .dotted-line{stroke-dasharray:1 2;}#my-svg [id$="-compositionStart"],#my-svg .composition{fill:lightgrey!important;stroke:lightgrey!important;stroke-width:1;}#my-svg [id$="-compositionEnd"],#my-svg .composition{fill:lightgrey!important;stroke:lightgrey!important;stroke-width:1;}#my-svg [id$="-dependencyStart"],#my-svg .dependency{fill:lightgrey!important;stroke:lightgrey!important;stroke-width:1;}#my-svg [id$="-dependencyEnd"],#my-svg .dependency{fill:lightgrey!important;stroke:lightgrey!important;stroke-width:1;}#my-svg [id$="-extensionStart"],#my-svg .extension{fill:transparent!important;stroke:lightgrey!important;stroke-width:1;}#my-svg [id$="-extensionEnd"],#my-svg .extension{fill:transparent!important;stroke:lightgrey!important;stroke-width:1;}#my-svg [id$="-aggregationStart"],#my-svg .aggregation{fill:transparent!important;stroke:lightgrey!important;stroke-width:1;}#my-svg [id$="-aggregationEnd"],#my-svg .aggregation{fill:transparent!important;stroke:lightgrey!important;stroke-width:1;}#my-svg [id$="-lollipopStart"],#my-svg .lollipop{fill:#1f2020!important;stroke:lightgrey!important;stroke-width:1;}#my-svg [id$="-lollipopEnd"],#my-svg .lollipop{fill:#1f2020!important;stroke:lightgrey!important;stroke-width:1;}#my-svg .edgeTerminals{font-size:11px;line-height:initial;}#my-svg .classTitleText{text-anchor:middle;font-size:18px;fill:#ccc;}#my-svg .edgeLabel[data-look="neo"]{background-color:hsl(0, 0%, 34.4117647059%);text-align:center;}#my-svg .edgeLabel[data-look="neo"] p{background-color:hsl(0, 0%, 34.4117647059%);}#my-svg .edgeLabel[data-look="neo"] rect{opacity:0.5;background-color:hsl(0, 0%, 34.4117647059%);fill:hsl(0, 0%, 34.4117647059%);}#my-svg .label-icon{display:inline-block;height:1em;overflow:visible;vertical-align:-0.125em;}#my-svg .node .label-icon path{fill:currentColor;stroke:revert;stroke-width:revert;}#my-svg .node .neo-node{stroke:#ccc;}#my-svg [data-look="neo"].node rect,#my-svg [data-look="neo"].cluster rect,#my-svg [data-look="neo"].node polygon{stroke:url(#my-svg-gradient);filter:drop-shadow( 1px 2px 2px rgba(185,185,185,1));}#my-svg [data-look="neo"].swimlane.cluster rect{filter:none;}#my-svg [data-look="neo"].node path{stroke:url(#my-svg-gradient);stroke-width:1px;}#my-svg [data-look="neo"].node .outer-path{filter:drop-shadow( 1px 2px 2px rgba(185,185,185,1));}#my-svg [data-look="neo"].node .neo-line path{stroke:#ccc;filter:none;}#my-svg [data-look="neo"].node circle{stroke:url(#my-svg-gradient);filter:drop-shadow( 1px 2px 2px rgba(185,185,185,1));}#my-svg [data-look="neo"].node circle .state-start{fill:#000000;}#my-svg [data-look="neo"].icon-shape .icon{fill:url(#my-svg-gradient);filter:drop-shadow( 1px 2px 2px rgba(185,185,185,1));}#my-svg [data-look="neo"].icon-shape .icon-neo path{stroke:url(#my-svg-gradient);filter:drop-shadow( 1px 2px 2px rgba(185,185,185,1));}#my-svg :root{--mermaid-font-family:"trebuchet ms",verdana,arial,sans-serif;}</style><g><defs><marker id="my-svg_class-aggregationStart" class="marker aggregation class" refX="18" refY="7" markerWidth="190" markerHeight="240" orient="auto"><path d="M 18,7 L9,13 L1,7 L9,1 Z"/></marker></defs><defs><marker id="my-svg_class-aggregationEnd" class="marker aggregation class" refX="1" refY="7" markerWidth="20" markerHeight="28" orient="auto"><path d="M 18,7 L9,13 L1,7 L9,1 Z"/></marker></defs><defs><marker id="my-svg_class-aggregationStart-margin" class="marker aggregation class" refX="15" refY="7" markerWidth="190" markerHeight="240" orient="auto" markerUnits="userSpaceOnUse"><path d="M 18,7 L9,13 L1,7 L9,1 Z" style="stroke-width: 2;"/></marker></defs><defs><marker id="my-svg_class-aggregationEnd-margin" class="marker aggregation class" refX="1" refY="7" markerWidth="20" markerHeight="28" orient="auto" markerUnits="userSpaceOnUse"><path d="M 18,7 L9,13 L1,7 L9,1 Z" style="stroke-width: 2;"/></marker></defs><defs><marker id="my-svg_class-extensionStart" class="marker extension class" refX="18" refY="7" markerWidth="20" markerHeight="28" orient="auto" markerUnits="userSpaceOnUse"><path d="M 1,7 L18,13 V 1 Z"/></marker></defs><defs><marker id="my-svg_class-extensionEnd" class="marker extension class" refX="1" refY="7" markerWidth="20" markerHeight="28" orient="auto"><path d="M 1,1 V 13 L18,7 Z"/></marker></defs><marker id="my-svg_class-extensionStart-margin" class="marker extension class" refX="18" refY="7" markerWidth="20" markerHeight="28" orient="auto" markerUnits="userSpaceOnUse" viewBox="0 0 20 14"><polygon points="10,7 18,13 18,1" style="stroke-width: 2; stroke-dasharray: 0;"/></marker><defs><marker id="my-svg_class-extensionEnd-margin" class="marker extension class" refX="9" refY="7" markerWidth="20" markerHeight="28" orient="auto" markerUnits="userSpaceOnUse" viewBox="0 0 20 14"><polygon points="10,1 10,13 18,7" style="stroke-width: 2; stroke-dasharray: 0;"/></marker></defs><defs><marker id="my-svg_class-compositionStart" class="marker composition class" refX="18" refY="7" markerWidth="190" markerHeight="240" orient="auto"><path d="M 18,7 L9,13 L1,7 L9,1 Z"/></marker></defs><defs><marker id="my-svg_class-compositionEnd" class="marker composition class" refX="1" refY="7" markerWidth="20" markerHeight="28" orient="auto"><path d="M 18,7 L9,13 L1,7 L9,1 Z"/></marker></defs><defs><marker id="my-svg_class-compositionStart-margin" class="marker composition class" refX="15" refY="7" markerWidth="190" markerHeight="240" orient="auto" markerUnits="userSpaceOnUse"><path viewBox="0 0 15 15" d="M 18,7 L9,13 L1,7 L9,1 Z" style="stroke-width: 0;"/></marker></defs><defs><marker id="my-svg_class-compositionEnd-margin" class="marker composition class" refX="3.5" refY="7" markerWidth="20" markerHeight="28" orient="auto" markerUnits="userSpaceOnUse"><path d="M 18,7 L9,13 L1,7 L9,1 Z" style="stroke-width: 0;"/></marker></defs><defs><marker id="my-svg_class-dependencyStart" class="marker dependency class" refX="6" refY="7" markerWidth="190" markerHeight="240" orient="auto"><path d="M 5,7 L9,13 L1,7 L9,1 Z"/></marker></defs><defs><marker id="my-svg_class-dependencyEnd" class="marker dependency class" refX="13" refY="7" markerWidth="20" markerHeight="28" orient="auto"><path d="M 18,7 L9,13 L14,7 L9,1 Z"/></marker></defs><defs><marker id="my-svg_class-dependencyStart-margin" class="marker dependency class" refX="4" refY="7" markerWidth="190" markerHeight="240" orient="auto" markerUnits="userSpaceOnUse"><path d="M 5,7 L9,13 L1,7 L9,1 Z" style="stroke-width: 0;"/></marker></defs><defs><marker id="my-svg_class-dependencyEnd-margin" class="marker dependency class" refX="16" refY="7" markerWidth="20" markerHeight="28" orient="auto" markerUnits="userSpaceOnUse"><path d="M 18,7 L9,13 L14,7 L9,1 Z" style="stroke-width: 0;"/></marker></defs><defs><marker id="my-svg_class-lollipopStart" class="marker lollipop class" refX="13" refY="7" markerWidth="190" markerHeight="240" orient="auto"><circle fill="transparent" cx="7" cy="7" r="6"/></marker></defs><defs><marker id="my-svg_class-lollipopEnd" class="marker lollipop class" refX="1" refY="7" markerWidth="190" markerHeight="240" orient="auto"><circle fill="transparent" cx="7" cy="7" r="6"/></marker></defs><defs><marker id="my-svg_class-lollipopStart-margin" class="marker lollipop class" refX="13" refY="7" markerWidth="190" markerHeight="240" orient="auto" markerUnits="userSpaceOnUse"><circle fill="transparent" cx="7" cy="7" r="6" stroke-width="2"/></marker></defs><defs><marker id="my-svg_class-lollipopEnd-margin" class="marker lollipop class" refX="1" refY="7" markerWidth="190" markerHeight="240" orient="auto" markerUnits="userSpaceOnUse"><circle fill="transparent" cx="7" cy="7" r="6" stroke-width="2"/></marker></defs><g class="root"><g class="clusters"/><g class="edgePaths"><path d="M1503.953,158L1503.953,183.167C1503.953,208.333,1503.953,258.667,1501.646,298C1499.339,337.333,1494.726,365.667,1492.419,379.833L1490.112,394" id="my-svg-edgeNote0" class="edge-thickness-normal edge-pattern-dotted relation" style="fill: none;;;fill: none" data-edge="true" data-et="edge" data-id="edgeNote0" data-points="W3sieCI6MTUwMy45NTMxMjUsInkiOjE1OH0seyJ4IjoxNTAzLjk1MzEyNSwieSI6MzA5fSx7IngiOjE0OTAuMTEyMDU0ODY5MTg2LCJ5IjozOTR9XQ==" data-look="classic"/><path d="M374.172,158L374.172,183.167C374.172,208.333,374.172,258.667,382.84,290C391.508,321.333,408.843,333.667,417.511,339.833L426.179,346" id="my-svg-edgeNote1" class="edge-thickness-normal edge-pattern-dotted relation" style="fill: none;;;fill: none" data-edge="true" data-et="edge" data-id="edgeNote1" data-points="W3sieCI6Mzc0LjE3MTg3NSwieSI6MTU4fSx7IngiOjM3NC4xNzE4NzUsInkiOjMwOX0seyJ4Ijo0MjYuMTc5MTc2NTA3OTk0MTYsInkiOjM0Nn1d" data-look="classic"/><path d="M900.753,288.82L899.987,292.183C899.222,295.547,897.691,302.273,886.186,312.228C874.682,322.183,853.203,335.367,842.464,341.958L831.725,348.55" id="my-svg-id_VaultData_TaskService_1" class="edge-thickness-normal edge-pattern-solid relation" style=";;;" data-edge="true" data-et="edge" data-id="id_VaultData_TaskService_1" data-points="W3sieCI6OTA0LjU4MDU5ODE4Nzg2OTgsInkiOjI3Mn0seyJ4Ijo4OTYuMTYwMTU2MjUsInkiOjMwOX0seyJ4Ijo4MzEuNzI0NjA5Mzc1LCJ5IjozNDguNTUwMTA5Nzc1MjIyMTV9XQ==" data-look="classic" marker-start="url(#my-svg_class-compositionStart)"/><path d="M1093.306,244.488L1109.635,255.24C1125.964,265.992,1158.621,287.496,1201.718,314.422C1244.815,341.347,1298.351,373.694,1325.119,389.868L1351.887,406.042" id="my-svg-id_VaultData_ProjectStore_2" class="edge-thickness-normal edge-pattern-solid relation" style=";;;" data-edge="true" data-et="edge" data-id="id_VaultData_ProjectStore_2" data-points="W3sieCI6MTA3OC44OTg0Mzc1LCJ5IjoyMzUuMDAxMzMxNzIwMDQ5NjJ9LHsieCI6MTE5MS4yNzkyOTY4NzUsInkiOjMwOX0seyJ4IjoxMzUxLjg4NjcxODc1LCJ5Ijo0MDYuMDQxNzA4NjkwOTY4NzN9XQ==" data-look="classic" marker-start="url(#my-svg_class-compositionStart)"/><path d="M516.435,630.356L513.921,634.13C511.407,637.904,506.378,645.452,503.864,655.393C501.35,665.333,501.35,677.667,501.35,683.833L501.35,690" id="my-svg-id_TaskService_DayStore_3" class="edge-thickness-normal edge-pattern-solid relation" style=";;;" data-edge="true" data-et="edge" data-id="id_TaskService_DayStore_3" data-points="W3sieCI6NTI1Ljk5ODkwOTg4MzcyMDksInkiOjYxNn0seyJ4Ijo1MDEuMzQ5NjA5Mzc1LCJ5Ijo2NTN9LHsieCI6NTAxLjM0OTYwOTM3NSwieSI6NjkwfV0=" data-look="classic" marker-start="url(#my-svg_class-compositionStart)"/><path d="M831.725,566.011L868.527,580.509C905.329,595.007,978.933,624.004,1015.735,649.168C1052.537,674.333,1052.537,695.667,1052.537,706.333L1052.537,717" id="my-svg-id_TaskService_DayMarkdownFile_4" class="edge-thickness-normal edge-pattern-dashed relation" style=";;;" data-edge="true" data-et="edge" data-id="id_TaskService_DayMarkdownFile_4" data-points="W3sieCI6ODMxLjcyNDYwOTM3NSwieSI6NTY2LjAxMDUwMzcxMjk4Mn0seyJ4IjoxMDUyLjUzNzEwOTM3NSwieSI6NjUzfSx7IngiOjEwNTIuNTM3MTA5Mzc1LCJ5Ijo3MjN9XQ==" data-look="classic" marker-end="url(#my-svg_class-dependencyEnd)"/><path d="M1475.945,568L1475.945,582.167C1475.945,596.333,1475.945,624.667,1475.945,649.5C1475.945,674.333,1475.945,695.667,1475.945,706.333L1475.945,717" id="my-svg-id_ProjectStore_ProjectTaskFile_5" class="edge-thickness-normal edge-pattern-dashed relation" style=";;;" data-edge="true" data-et="edge" data-id="id_ProjectStore_ProjectTaskFile_5" data-points="W3sieCI6MTQ3NS45NDUzMTI1LCJ5Ijo1Njh9LHsieCI6MTQ3NS45NDUzMTI1LCJ5Ijo2NTN9LHsieCI6MTQ3NS45NDUzMTI1LCJ5Ijo3MjN9XQ==" data-look="classic" marker-end="url(#my-svg_class-dependencyEnd)"/></g><g class="edgeLabels"><g class="edgeLabel"><g class="label" data-id="edgeNote0" transform="translate(0, 0)"><foreignObject width="0" height="0"><div xmlns="http://www.w3.org/1999/xhtml" class="labelBkg" style="display: table-cell; white-space: nowrap; line-height: 1.5; max-width: 200px; text-align: center;"><span class="edgeLabel"></span></div></foreignObject></g></g><g class="edgeLabel"><g class="label" data-id="edgeNote1" transform="translate(0, 0)"><foreignObject width="0" height="0"><div xmlns="http://www.w3.org/1999/xhtml" class="labelBkg" style="display: table-cell; white-space: nowrap; line-height: 1.5; max-width: 200px; text-align: center;"><span class="edgeLabel"></span></div></foreignObject></g></g><g class="edgeLabel" transform="translate(880.1124, 318.85001)"><g class="label" data-id="id_VaultData_TaskService_1" transform="translate(-20.90625, -12)"><foreignObject width="41.8125" height="24"><div xmlns="http://www.w3.org/1999/xhtml" class="labelBkg" style="display: table-cell; white-space: nowrap; line-height: 1.5; max-width: 200px; text-align: center;"><span class="edgeLabel"><p>builds</p></span></div></foreignObject></g></g><g class="edgeLabel" transform="translate(1214.00009, 322.72829)"><g class="label" data-id="id_VaultData_ProjectStore_2" transform="translate(-36.015625, -12)"><foreignObject width="72.03125" height="24"><div xmlns="http://www.w3.org/1999/xhtml" class="labelBkg" style="display: table-cell; white-space: nowrap; line-height: 1.5; max-width: 200px; text-align: center;"><span class="edgeLabel"><p>builds first</p></span></div></foreignObject></g></g><g class="edgeLabel" transform="translate(501.349609375, 653)"><g class="label" data-id="id_TaskService_DayStore_3" transform="translate(-52.921875, -12)"><foreignObject width="105.84375" height="24"><div xmlns="http://www.w3.org/1999/xhtml" class="labelBkg" style="display: table-cell; white-space: nowrap; line-height: 1.5; max-width: 200px; text-align: center;"><span class="edgeLabel"><p>the only way in</p></span></div></foreignObject></g></g><g class="edgeLabel" transform="translate(1052.537109375, 653)"><g class="label" data-id="id_TaskService_DayMarkdownFile_4" transform="translate(-65.3671875, -12)"><foreignObject width="130.734375" height="24"><div xmlns="http://www.w3.org/1999/xhtml" class="labelBkg" style="display: table-cell; white-space: nowrap; line-height: 1.5; max-width: 200px; text-align: center;"><span class="edgeLabel"><p>one pass per write</p></span></div></foreignObject></g></g><g class="edgeLabel" transform="translate(1475.9453125, 653)"><g class="label" data-id="id_ProjectStore_ProjectTaskFile_5" transform="translate(-65.3671875, -12)"><foreignObject width="130.734375" height="24"><div xmlns="http://www.w3.org/1999/xhtml" class="labelBkg" style="display: table-cell; white-space: nowrap; line-height: 1.5; max-width: 200px; text-align: center;"><span class="edgeLabel"><p>one pass per write</p></span></div></foreignObject></g></g></g><g class="nodes"><g class="node default" id="my-svg-classId-VaultData-0" data-look="classic" transform="translate(934.62109375, 140)"><g class="basic label-container outer-path"><path d="M-144.27734375 -132 L144.27734375 -132 L144.27734375 132 L-144.27734375 132" stroke="none" stroke-width="0" fill="#1f2020" style=""/><path d="M-144.27734375 -132 C-86.5651090272404 -132, -28.852874304480792 -132, 144.27734375 -132 M-144.27734375 -132 C-80.40521776992318 -132, -16.533091789846353 -132, 144.27734375 -132 M144.27734375 -132 C144.27734375 -74.5793911345303, 144.27734375 -17.158782269060595, 144.27734375 132 M144.27734375 -132 C144.27734375 -61.14352073594928, 144.27734375 9.712958528101439, 144.27734375 132 M144.27734375 132 C82.04403969218765 132, 19.810735634375305 132, -144.27734375 132 M144.27734375 132 C35.80600584451531 132, -72.66533206096938 132, -144.27734375 132 M-144.27734375 132 C-144.27734375 56.28234013393521, -144.27734375 -19.435319732129585, -144.27734375 -132 M-144.27734375 132 C-144.27734375 35.96570525094866, -144.27734375 -60.06858949810268, -144.27734375 -132" stroke="#ccc" stroke-width="1.3" fill="none" stroke-dasharray="0 0" style=""/></g><g class="annotation-group text" transform="translate(0, -108)"/><g class="label-group text" transform="translate(-36.4609375, -108)"><g class="label" style="font-weight: bolder" transform="translate(0,-12)"><foreignObject width="72.921875" height="24"><div xmlns="http://www.w3.org/1999/xhtml" style="display: table-cell; white-space: nowrap; line-height: 1.5; max-width: 114px; text-align: center;"><span class="nodeLabel markdown-node-label" style=""><p>VaultData</p></span></div></foreignObject></g></g><g class="members-group text" transform="translate(-132.27734375, -60)"><g class="label" style="" transform="translate(0,-12)"><foreignObject width="100.078125" height="24"><div xmlns="http://www.w3.org/1999/xhtml" style="display: table-cell; white-space: nowrap; line-height: 1.5; max-width: 143px; text-align: center;"><span class="nodeLabel markdown-node-label" style=""><p>+app, settings</p></span></div></foreignObject></g><g class="label" style="" transform="translate(0,12)"><foreignObject width="162.296875" height="24"><div xmlns="http://www.w3.org/1999/xhtml" style="display: table-cell; white-space: nowrap; line-height: 1.5; max-width: 202px; text-align: center;"><span class="nodeLabel markdown-node-label" style=""><p>+projects: ProjectStore</p></span></div></foreignObject></g><g class="label" style="" transform="translate(0,36)"><foreignObject width="228.09375" height="24"><div xmlns="http://www.w3.org/1999/xhtml" style="display: table-cell; white-space: nowrap; line-height: 1.5; max-width: 262px; text-align: center;"><span class="nodeLabel markdown-node-label" style=""><p>+projectTasks: ProjectTaskStore</p></span></div></foreignObject></g><g class="label" style="" transform="translate(0,60)"><foreignObject width="141.546875" height="24"><div xmlns="http://www.w3.org/1999/xhtml" style="display: table-cell; white-space: nowrap; line-height: 1.5; max-width: 182px; text-align: center;"><span class="nodeLabel markdown-node-label" style=""><p>+tasks: TaskService</p></span></div></foreignObject></g></g><g class="methods-group text" transform="translate(-132.27734375, 60)"><g class="label" style="" transform="translate(0,-12)"><foreignObject width="193.359375" height="24"><div xmlns="http://www.w3.org/1999/xhtml" style="display: table-cell; white-space: nowrap; line-height: 1.5; max-width: 232px; text-align: center;"><span class="nodeLabel markdown-node-label" style=""><p>+start() / warm() / dispose()</p></span></div></foreignObject></g><g class="label" style="" transform="translate(0,12)"><foreignObject width="154.296875" height="24"><div xmlns="http://www.w3.org/1999/xhtml" style="display: table-cell; white-space: nowrap; line-height: 1.5; max-width: 199px; text-align: center;"><span class="nodeLabel markdown-node-label" style=""><p>+load() / reconfigure()</p></span></div></foreignObject></g><g class="label" style="" transform="translate(0,36)"><foreignObject width="126.75" height="24"><div xmlns="http://www.w3.org/1999/xhtml" style="display: table-cell; white-space: nowrap; line-height: 1.5; max-width: 171px; text-align: center;"><span class="nodeLabel markdown-node-label" style=""><p>+invalidate(paths)</p></span></div></foreignObject></g></g><g class="divider" style=""><path d="M-144.27734375 -84 C-86.5651090272404 -83.99979999550442, -28.852874304480792 -83.99959999100882, 144.27734375 -83.999 M-144.27734375 -84 C-80.40521776992318 -83.99977864810815, -16.533091789846353 -83.9995572962163, 144.27734375 -83.999" stroke="#ccc" stroke-width="1.3" fill="none" stroke-dasharray="0 0" style=""/></g><g class="divider" style=""><path d="M-144.27734375 36 C-86.5651090272404 36.00020000449559, -28.852874304480792 36.00040000899117, 144.27734375 36.001 M-144.27734375 36 C-80.40521776992318 36.000221351891845, -16.533091789846353 36.0004427037837, 144.27734375 36.001" stroke="#ccc" stroke-width="1.3" fill="none" stroke-dasharray="0 0" style=""/></g></g><g class="node default" id="my-svg-classId-TaskService-1" data-look="classic" transform="translate(615.935546875, 481)"><g class="basic label-container outer-path"><path d="M-215.7890625 -135 L215.7890625 -135 L215.7890625 135 L-215.7890625 135" stroke="none" stroke-width="0" fill="#1f2020" style=""/><path d="M-215.7890625 -135 C-129.47149730290548 -135, -43.15393210581095 -135, 215.7890625 -135 M-215.7890625 -135 C-120.25842805052379 -135, -24.72779360104758 -135, 215.7890625 -135 M215.7890625 -135 C215.7890625 -76.27437729667872, 215.7890625 -17.54875459335743, 215.7890625 135 M215.7890625 -135 C215.7890625 -62.53314620722085, 215.7890625 9.933707585558295, 215.7890625 135 M215.7890625 135 C122.70953947951347 135, 29.630016459026933 135, -215.7890625 135 M215.7890625 135 C53.55341477900947 135, -108.68223294198106 135, -215.7890625 135 M-215.7890625 135 C-215.7890625 57.56148422788827, -215.7890625 -19.877031544223456, -215.7890625 -135 M-215.7890625 135 C-215.7890625 36.78310764301568, -215.7890625 -61.433784713968635, -215.7890625 -135" stroke="#ccc" stroke-width="1.3" fill="none" stroke-dasharray="0 0" style=""/></g><g class="annotation-group text" transform="translate(0, -111)"/><g class="label-group text" transform="translate(-46.109375, -111)"><g class="label" style="font-weight: bolder" transform="translate(0,-12)"><foreignObject width="92.21875" height="24"><div xmlns="http://www.w3.org/1999/xhtml" style="display: table-cell; white-space: nowrap; line-height: 1.5; max-width: 128px; text-align: center;"><span class="nodeLabel markdown-node-label" style=""><p>TaskService</p></span></div></foreignObject></g></g><g class="members-group text" transform="translate(-203.7890625, -63)"/><g class="methods-group text" transform="translate(-203.7890625, -33)"><g class="label" style="" transform="translate(0,-12)"><foreignObject width="169.40625" height="24"><div xmlns="http://www.w3.org/1999/xhtml" style="display: table-cell; white-space: nowrap; line-height: 1.5; max-width: 208px; text-align: center;"><span class="nodeLabel markdown-node-label" style=""><p>+day(date) / week(start)</p></span></div></foreignObject></g><g class="label" style="" transform="translate(0,12)"><foreignObject width="164.078125" height="24"><div xmlns="http://www.w3.org/1999/xhtml" style="display: table-cell; white-space: nowrap; line-height: 1.5; max-width: 212px; text-align: center;"><span class="nodeLabel markdown-node-label" style=""><p>+inbox() / inboxModel()</p></span></div></foreignObject></g><g class="label" style="" transform="translate(0,36)"><foreignObject width="255.65625" height="24"><div xmlns="http://www.w3.org/1999/xhtml" style="display: table-cell; white-space: nowrap; line-height: 1.5; max-width: 290px; text-align: center;"><span class="nodeLabel markdown-node-label" style=""><p>+warmWindow(centre, before, after)</p></span></div></foreignObject></g><g class="label" style="" transform="translate(0,60)"><foreignObject width="162.3125" height="24"><div xmlns="http://www.w3.org/1999/xhtml" style="display: table-cell; white-space: nowrap; line-height: 1.5; max-width: 200px; text-align: center;"><span class="nodeLabel markdown-node-label" style=""><p>+ensureDayNote(date)</p></span></div></foreignObject></g><g class="label" style="" transform="translate(0,84)"><foreignObject width="277" height="24"><div xmlns="http://www.w3.org/1999/xhtml" style="display: table-cell; white-space: nowrap; line-height: 1.5; max-width: 310px; text-align: center;"><span class="nodeLabel markdown-node-label" style=""><p>+reconcileDay(path) / reconcileHabits()</p></span></div></foreignObject></g><g class="label" style="" transform="translate(0,108)"><foreignObject width="361.46875" height="24"><div xmlns="http://www.w3.org/1999/xhtml" style="display: table-cell; white-space: nowrap; line-height: 1.5; max-width: 389px; text-align: center;"><span class="nodeLabel markdown-node-label" style=""><p>+addTaskToDay() / rescheduleChecklistItem() : / …</p></span></div></foreignObject></g><g class="label" style="" transform="translate(0,132)"><foreignObject width="147.625" height="24"><div xmlns="http://www.w3.org/1999/xhtml" style="display: table-cell; white-space: nowrap; line-height: 1.5; max-width: 190px; text-align: center;"><span class="nodeLabel markdown-node-label" style=""><p>#marking(paths, run)</p></span></div></foreignObject></g></g><g class="divider" style=""><path d="M-215.7890625 -87 C-129.47149730290548 -86.99979999550442, -43.15393210581095 -86.99959999100882, 215.7890625 -86.999 M-215.7890625 -87 C-120.25842805052379 -86.99977864810815, -24.72779360104758 -86.9995572962163, 215.7890625 -86.999" stroke="#ccc" stroke-width="1.3" fill="none" stroke-dasharray="0 0" style=""/></g><g class="divider" style=""><path d="M-215.7890625 -63 C-129.47149730290548 -62.99979999550441, -43.15393210581095 -62.99959999100883, 215.7890625 -62.999 M-215.7890625 -63 C-120.25842805052379 -62.999778648108155, -24.72779360104758 -62.9995572962163, 215.7890625 -62.999" stroke="#ccc" stroke-width="1.3" fill="none" stroke-dasharray="0 0" style=""/></g></g><g class="node default" id="my-svg-classId-ProjectStore-2" data-look="classic" transform="translate(1475.9453125, 481)"><g class="basic label-container outer-path"><path d="M-124.05859375 -87 L124.05859375 -87 L124.05859375 87 L-124.05859375 87" stroke="none" stroke-width="0" fill="#1f2020" style=""/><path d="M-124.05859375 -87 C-74.43404081754778 -87, -24.809487885095578 -87, 124.05859375 -87 M-124.05859375 -87 C-69.1373848965748 -87, -14.216176043149602 -87, 124.05859375 -87 M124.05859375 -87 C124.05859375 -49.154598702304064, 124.05859375 -11.309197404608128, 124.05859375 87 M124.05859375 -87 C124.05859375 -40.299138666875656, 124.05859375 6.401722666248688, 124.05859375 87 M124.05859375 87 C70.5465454605168 87, 17.03449717103358 87, -124.05859375 87 M124.05859375 87 C30.788220918260777 87, -62.48215191347845 87, -124.05859375 87 M-124.05859375 87 C-124.05859375 37.09517872463911, -124.05859375 -12.809642550721776, -124.05859375 -87 M-124.05859375 87 C-124.05859375 23.70466936994344, -124.05859375 -39.59066126011312, -124.05859375 -87" stroke="#ccc" stroke-width="1.3" fill="none" stroke-dasharray="0 0" style=""/></g><g class="annotation-group text" transform="translate(0, -63)"/><g class="label-group text" transform="translate(-47.5703125, -63)"><g class="label" style="font-weight: bolder" transform="translate(0,-12)"><foreignObject width="95.140625" height="24"><div xmlns="http://www.w3.org/1999/xhtml" style="display: table-cell; white-space: nowrap; line-height: 1.5; max-width: 129px; text-align: center;"><span class="nodeLabel markdown-node-label" style=""><p>ProjectStore</p></span></div></foreignObject></g></g><g class="members-group text" transform="translate(-112.05859375, -15)"/><g class="methods-group text" transform="translate(-112.05859375, 15)"><g class="label" style="" transform="translate(0,-12)"><foreignObject width="144.515625" height="24"><div xmlns="http://www.w3.org/1999/xhtml" style="display: table-cell; white-space: nowrap; line-height: 1.5; max-width: 184px; text-align: center;"><span class="nodeLabel markdown-node-label" style=""><p>+createProject(opts)</p></span></div></foreignObject></g><g class="label" style="" transform="translate(0,12)"><foreignObject width="176.546875" height="24"><div xmlns="http://www.w3.org/1999/xhtml" style="display: table-cell; white-space: nowrap; line-height: 1.5; max-width: 219px; text-align: center;"><span class="nodeLabel markdown-node-label" style=""><p>+ensureListingsVerified()</p></span></div></foreignObject></g><g class="label" style="" transform="translate(0,36)"><foreignObject width="142.71875" height="24"><div xmlns="http://www.w3.org/1999/xhtml" style="display: table-cell; white-space: nowrap; line-height: 1.5; max-width: 191px; text-align: center;"><span class="nodeLabel markdown-node-label" style=""><p>+verifyListings(opts)</p></span></div></foreignObject></g></g><g class="divider" style=""><path d="M-124.05859375 -39 C-74.43404081754778 -38.99979999550441, -24.809487885095578 -38.99959999100883, 124.05859375 -38.999 M-124.05859375 -39 C-69.1373848965748 -38.999778648108155, -14.216176043149602 -38.9995572962163, 124.05859375 -38.999" stroke="#ccc" stroke-width="1.3" fill="none" stroke-dasharray="0 0" style=""/></g><g class="divider" style=""><path d="M-124.05859375 -15 C-74.43404081754778 -14.999799995504413, -24.809487885095578 -14.999599991008825, 124.05859375 -14.999 M-124.05859375 -15 C-69.1373848965748 -14.999778648108151, -14.216176043149602 -14.999557296216302, 124.05859375 -14.999" stroke="#ccc" stroke-width="1.3" fill="none" stroke-dasharray="0 0" style=""/></g></g><g class="node default" id="my-svg-classId-DayStore-3" data-look="classic" transform="translate(501.349609375, 765)"><g class="basic label-container outer-path"><path d="M-99.15625 -75 L99.15625 -75 L99.15625 75 L-99.15625 75" stroke="none" stroke-width="0" fill="#1f2020" style=""/><path d="M-99.15625 -75 C-59.49285846886341 -75, -19.82946693772682 -75, 99.15625 -75 M-99.15625 -75 C-55.259402947657506 -75, -11.362555895315012 -75, 99.15625 -75 M99.15625 -75 C99.15625 -42.3746540537104, 99.15625 -9.749308107420802, 99.15625 75 M99.15625 -75 C99.15625 -34.74063678178936, 99.15625 5.518726436421275, 99.15625 75 M99.15625 75 C56.38570200477843 75, 13.61515400955686 75, -99.15625 75 M99.15625 75 C24.608085890271468 75, -49.940078219457064 75, -99.15625 75 M-99.15625 75 C-99.15625 31.97860234882682, -99.15625 -11.042795302346363, -99.15625 -75 M-99.15625 75 C-99.15625 20.43505980167538, -99.15625 -34.12988039664924, -99.15625 -75" stroke="#ccc" stroke-width="1.3" fill="none" stroke-dasharray="0 0" style=""/></g><g class="annotation-group text" transform="translate(0, -51)"/><g class="label-group text" transform="translate(-35.125, -51)"><g class="label" style="font-weight: bolder" transform="translate(0,-12)"><foreignObject width="70.25" height="24"><div xmlns="http://www.w3.org/1999/xhtml" style="display: table-cell; white-space: nowrap; line-height: 1.5; max-width: 110px; text-align: center;"><span class="nodeLabel markdown-node-label" style=""><p>DayStore</p></span></div></foreignObject></g></g><g class="members-group text" transform="translate(-87.15625, -3)"/><g class="methods-group text" transform="translate(-87.15625, 27)"><g class="label" style="" transform="translate(0,-12)"><foreignObject width="139.1875" height="24"><div xmlns="http://www.w3.org/1999/xhtml" style="display: table-cell; white-space: nowrap; line-height: 1.5; max-width: 183px; text-align: center;"><span class="nodeLabel markdown-node-label" style=""><p>+day(date) / inbox()</p></span></div></foreignObject></g><g class="label" style="" transform="translate(0,12)"><foreignObject width="93.828125" height="24"><div xmlns="http://www.w3.org/1999/xhtml" style="display: table-cell; white-space: nowrap; line-height: 1.5; max-width: 145px; text-align: center;"><span class="nodeLabel markdown-node-label" style=""><p>+file(filePath)</p></span></div></foreignObject></g></g><g class="divider" style=""><path d="M-99.15625 -27 C-59.49285846886341 -26.99979999550441, -19.82946693772682 -26.999599991008825, 99.15625 -26.999 M-99.15625 -27 C-55.259402947657506 -26.99977864810815, -11.362555895315012 -26.999557296216302, 99.15625 -26.999" stroke="#ccc" stroke-width="1.3" fill="none" stroke-dasharray="0 0" style=""/></g><g class="divider" style=""><path d="M-99.15625 -3 C-59.49285846886341 -2.999799995504413, -19.82946693772682 -2.9995999910088256, 99.15625 -2.999 M-99.15625 -3 C-55.259402947657506 -2.9997786481081508, -11.362555895315012 -2.9995572962163015, 99.15625 -2.999" stroke="#ccc" stroke-width="1.3" fill="none" stroke-dasharray="0 0" style=""/></g></g><g class="node default" id="my-svg-classId-DayMarkdownFile-4" data-look="classic" transform="translate(1052.537109375, 765)"><g class="basic label-container outer-path"><path d="M-80.015625 -42 L80.015625 -42 L80.015625 42 L-80.015625 42" stroke="none" stroke-width="0" fill="#1f2020" style=""/><path d="M-80.015625 -42 C-48.00865556556091 -42, -16.001686131121815 -42, 80.015625 -42 M-80.015625 -42 C-44.59240505750931 -42, -9.169185115018621 -42, 80.015625 -42 M80.015625 -42 C80.015625 -23.729806270077823, 80.015625 -5.459612540155646, 80.015625 42 M80.015625 -42 C80.015625 -19.454756597802042, 80.015625 3.0904868043959155, 80.015625 42 M80.015625 42 C45.50128899566189 42, 10.986952991323776 42, -80.015625 42 M80.015625 42 C19.85786445699341 42, -40.29989608601318 42, -80.015625 42 M-80.015625 42 C-80.015625 17.90801731534302, -80.015625 -6.18396536931396, -80.015625 -42 M-80.015625 42 C-80.015625 11.443633488938211, -80.015625 -19.112733022123578, -80.015625 -42" stroke="#ccc" stroke-width="1.3" fill="none" stroke-dasharray="0 0" style=""/></g><g class="annotation-group text" transform="translate(0, -18)"/><g class="label-group text" transform="translate(-68.015625, -18)"><g class="label" style="font-weight: bolder" transform="translate(0,-12)"><foreignObject width="136.03125" height="24"><div xmlns="http://www.w3.org/1999/xhtml" style="display: table-cell; white-space: nowrap; line-height: 1.5; max-width: 172px; text-align: center;"><span class="nodeLabel markdown-node-label" style=""><p>DayMarkdownFile</p></span></div></foreignObject></g></g><g class="members-group text" transform="translate(-68.015625, 30)"/><g class="methods-group text" transform="translate(-68.015625, 60)"/><g class="divider" style=""><path d="M-80.015625 6 C-48.00865556556091 6.000200004495587, -16.001686131121815 6.000400008991175, 80.015625 6.001 M-80.015625 6 C-44.59240505750931 6.00022135189185, -9.169185115018621 6.0004427037836985, 80.015625 6.001" stroke="#ccc" stroke-width="1.3" fill="none" stroke-dasharray="0 0" style=""/></g><g class="divider" style=""><path d="M-80.015625 24 C-48.00865556556091 24.00020000449559, -16.001686131121815 24.000400008991175, 80.015625 24.001 M-80.015625 24 C-44.59240505750931 24.00022135189185, -9.169185115018621 24.000442703783698, 80.015625 24.001" stroke="#ccc" stroke-width="1.3" fill="none" stroke-dasharray="0 0" style=""/></g></g><g class="node default" id="my-svg-classId-ProjectTaskFile-5" data-look="classic" transform="translate(1475.9453125, 765)"><g class="basic label-container outer-path"><path d="M-70.546875 -42 L70.546875 -42 L70.546875 42 L-70.546875 42" stroke="none" stroke-width="0" fill="#1f2020" style=""/><path d="M-70.546875 -42 C-42.32749070074351 -42, -14.10810640148702 -42, 70.546875 -42 M-70.546875 -42 C-39.31550650940335 -42, -8.08413801880669 -42, 70.546875 -42 M70.546875 -42 C70.546875 -23.729806270077823, 70.546875 -5.459612540155646, 70.546875 42 M70.546875 -42 C70.546875 -19.454756597802042, 70.546875 3.0904868043959155, 70.546875 42 M70.546875 42 C40.11683651931526 42, 9.686798038630513 42, -70.546875 42 M70.546875 42 C17.507958996939124 42, -35.53095700612175 42, -70.546875 42 M-70.546875 42 C-70.546875 17.90801731534302, -70.546875 -6.18396536931396, -70.546875 -42 M-70.546875 42 C-70.546875 11.443633488938211, -70.546875 -19.112733022123578, -70.546875 -42" stroke="#ccc" stroke-width="1.3" fill="none" stroke-dasharray="0 0" style=""/></g><g class="annotation-group text" transform="translate(0, -18)"/><g class="label-group text" transform="translate(-58.546875, -18)"><g class="label" style="font-weight: bolder" transform="translate(0,-12)"><foreignObject width="117.09375" height="24"><div xmlns="http://www.w3.org/1999/xhtml" style="display: table-cell; white-space: nowrap; line-height: 1.5; max-width: 150px; text-align: center;"><span class="nodeLabel markdown-node-label" style=""><p>ProjectTaskFile</p></span></div></foreignObject></g></g><g class="members-group text" transform="translate(-58.546875, 30)"/><g class="methods-group text" transform="translate(-58.546875, 60)"/><g class="divider" style=""><path d="M-70.546875 6 C-42.32749070074351 6.000200004495587, -14.10810640148702 6.000400008991175, 70.546875 6.001 M-70.546875 6 C-39.31550650940335 6.00022135189185, -8.08413801880669 6.0004427037836985, 70.546875 6.001" stroke="#ccc" stroke-width="1.3" fill="none" stroke-dasharray="0 0" style=""/></g><g class="divider" style=""><path d="M-70.546875 24 C-42.32749070074351 24.00020000449559, -14.10810640148702 24.000400008991175, 70.546875 24.001 M-70.546875 24 C-39.31550650940335 24.00022135189185, -8.08413801880669 24.000442703783698, 70.546875 24.001" stroke="#ccc" stroke-width="1.3" fill="none" stroke-dasharray="0 0" style=""/></g></g><g class="node undefined" id="my-svg-note0" data-look="classic" transform="translate(1503.953125, 140)"><g class="basic label-container outer-path"><path d="M-375.0546875 -18 L375.0546875 -18 L375.0546875 18 L-375.0546875 18" stroke="none" stroke-width="0" fill="hsl(180, 1.5873015873%, 28.3529411765%)" style="fill:hsl(180, 1.5873015873%, 28.3529411765%) !important;stroke:hsl(180, 0%, 18.3529411765%) !important"/><path d="M-375.0546875 -18 C-225.0294403178952 -18, -75.00419313579039 -18, 375.0546875 -18 M-375.0546875 -18 C-209.01655824993648 -18, -42.97842899987296 -18, 375.0546875 -18 M375.0546875 -18 C375.0546875 -10.169916972890496, 375.0546875 -2.339833945780992, 375.0546875 18 M375.0546875 -18 C375.0546875 -8.337752827629446, 375.0546875 1.3244943447411082, 375.0546875 18 M375.0546875 18 C213.2767409504726 18, 51.4987944009452 18, -375.0546875 18 M375.0546875 18 C93.07913483566517 18, -188.89641782866966 18, -375.0546875 18 M-375.0546875 18 C-375.0546875 7.674864563718437, -375.0546875 -2.6502708725631265, -375.0546875 -18 M-375.0546875 18 C-375.0546875 4.904414352402091, -375.0546875 -8.191171295195819, -375.0546875 -18" stroke="hsl(180, 0%, 18.3529411765%)" stroke-width="1.3" fill="none" stroke-dasharray="0 0" style="fill:hsl(180, 1.5873015873%, 28.3529411765%) !important;stroke:hsl(180, 0%, 18.3529411765%) !important"/></g><g class="label noteLabel" style="text-align:left !important;white-space:nowrap !important" transform="translate(-369.0546875, -12)"><rect/><foreignObject width="738.109375" height="24"><div style="text-align: center; white-space: break-spaces; display: table; line-height: 1.5; max-width: 200px; width: 200px;" xmlns="http://www.w3.org/1999/xhtml"><span style="text-align:left !important;white-space:nowrap !important" class="nodeLabel markdown-node-label"><p>drawn here for the service half it carries as well as its cache half — the rest of it is in the caches diagram</p></span></div></foreignObject></g></g><g class="node undefined" id="my-svg-note1" data-look="classic" transform="translate(374.171875, 140)"><g class="basic label-container outer-path"><path d="M-366.171875 -18 L366.171875 -18 L366.171875 18 L-366.171875 18" stroke="none" stroke-width="0" fill="hsl(180, 1.5873015873%, 28.3529411765%)" style="fill:hsl(180, 1.5873015873%, 28.3529411765%) !important;stroke:hsl(180, 0%, 18.3529411765%) !important"/><path d="M-366.171875 -18 C-219.69983268481155 -18, -73.22779036962311 -18, 366.171875 -18 M-366.171875 -18 C-204.06620045356973 -18, -41.96052590713947 -18, 366.171875 -18 M366.171875 -18 C366.171875 -10.169916972890496, 366.171875 -2.339833945780992, 366.171875 18 M366.171875 -18 C366.171875 -8.337752827629446, 366.171875 1.3244943447411082, 366.171875 18 M366.171875 18 C208.22548479073157 18, 50.27909458146314 18, -366.171875 18 M366.171875 18 C90.87464431744593 18, -184.42258636510815 18, -366.171875 18 M-366.171875 18 C-366.171875 7.674864563718437, -366.171875 -2.6502708725631265, -366.171875 -18 M-366.171875 18 C-366.171875 4.904414352402091, -366.171875 -8.191171295195819, -366.171875 -18" stroke="hsl(180, 0%, 18.3529411765%)" stroke-width="1.3" fill="none" stroke-dasharray="0 0" style="fill:hsl(180, 1.5873015873%, 28.3529411765%) !important;stroke:hsl(180, 0%, 18.3529411765%) !important"/></g><g class="label noteLabel" style="text-align:left !important;white-space:nowrap !important" transform="translate(-360.171875, -12)"><rect/><foreignObject width="720.34375" height="24"><div style="text-align: center; white-space: break-spaces; display: table; line-height: 1.5; max-width: 200px; width: 200px;" xmlns="http://www.w3.org/1999/xhtml"><span style="text-align:left !important;white-space:nowrap !important" class="nodeLabel markdown-node-label"><p>every write runs inside marking(), which invalidates the paths it touched whether or not the write threw</p></span></div></foreignObject></g></g></g></g></g><defs><filter id="my-svg-drop-shadow" height="130%" width="130%"><feDropShadow dx="4" dy="4" stdDeviation="0" flood-opacity="0.06" flood-color="#FFFFFF"/></filter></defs><defs><filter id="my-svg-drop-shadow-small" height="150%" width="150%"><feDropShadow dx="2" dy="2" stdDeviation="0" flood-opacity="0.06" flood-color="#FFFFFF"/></filter></defs><linearGradient id="my-svg-gradient" gradientUnits="objectBoundingBox" x1="0%" y1="0%" x2="100%" y2="0%"><stop offset="0%" stop-color="#cccccc" stop-opacity="1"/><stop offset="100%" stop-color="hsl(180, 0%, 18.3529411765%)" stop-opacity="1"/></linearGradient><text text-anchor="middle" x="943.50390625" y="-25" class="classDiagramTitleText">Service — which settings, when, and what to invalidate</text></svg>